<svg width="25" height="24" viewBox="0 0 25 24" fill="none" xmlns="http://www.w3.org/2000/svg">
<path d="M1.95483 2.11353H5.79781L8.3726 14.9779C8.46046 15.4202 8.70109 15.8175 9.05237 16.1003C9.40366 16.3831 9.84321 16.5333 10.2941 16.5247H19.6325C20.0834 16.5333 20.523 16.3831 20.8742 16.1003C21.2255 15.8175 21.4662 15.4202 21.554 14.9779L23.0912 6.91724H6.75855M10.6017 21.3287C10.6017 21.8593 10.1716 22.2894 9.64097 22.2894C9.11036 22.2894 8.68022 21.8593 8.68022 21.3287C8.68022 20.7981 9.11036 20.3679 9.64097 20.3679C10.1716 20.3679 10.6017 20.7981 10.6017 21.3287ZM21.1699 21.3287C21.1699 21.8593 20.7398 22.2894 20.2092 22.2894C19.6786 22.2894 19.2485 21.8593 19.2485 21.3287C19.2485 20.7981 19.6786 20.3679 20.2092 20.3679C20.7398 20.3679 21.1699 20.7981 21.1699 21.3287Z" stroke="#5CA720" stroke-width="2.46591" stroke-linecap="round" stroke-linejoin="round"/>
</svg>
