<svg width="113" height="21" viewBox="0 0 113 21" fill="none" xmlns="http://www.w3.org/2000/svg">
<path d="M33.5833 20.2583C31.9644 20.2583 30.5177 19.9139 29.2433 19.225L29.5274 16.745C30.0269 17.1067 30.6124 17.4167 31.2841 17.675C31.9558 17.9161 32.6877 18.0367 33.4799 18.0367C34.2205 18.0367 34.7888 17.9161 35.1849 17.675C35.581 17.4339 35.7791 17.0722 35.7791 16.59C35.7791 16.0561 35.5638 15.6514 35.1333 15.3758C34.7199 15.0831 34.1085 14.8075 33.2991 14.5492C32.4724 14.2736 31.7922 14.0067 31.2583 13.7483C30.7244 13.4728 30.2852 13.0939 29.9408 12.6117C29.5963 12.1294 29.4241 11.5094 29.4241 10.7517C29.4241 9.66667 29.8288 8.77111 30.6383 8.065C31.4649 7.34167 32.6533 6.98 34.2033 6.98C35.5466 6.98 36.7694 7.28139 37.8716 7.88417L37.5874 10.2608C37.0535 9.86472 36.5197 9.56333 35.9858 9.35667C35.4691 9.13278 34.8922 9.02083 34.2549 9.02083C33.5833 9.02083 33.058 9.15 32.6791 9.40833C32.3002 9.66667 32.1108 10.0456 32.1108 10.545C32.1108 10.9067 32.2055 11.1994 32.3949 11.4233C32.5844 11.6472 32.8599 11.8367 33.2216 11.9917C33.5833 12.1467 34.1516 12.3619 34.9266 12.6375C36.0288 13.0164 36.8985 13.4814 37.5358 14.0325C38.1902 14.5836 38.5174 15.3931 38.5174 16.4608C38.5174 17.5631 38.1127 18.4758 37.3033 19.1992C36.511 19.9053 35.271 20.2583 33.5833 20.2583Z" fill="#161616"/>
<path d="M46.8866 20.2583C45.4227 20.2583 44.1655 19.9569 43.115 19.3542C42.0816 18.7514 41.298 17.9419 40.7641 16.9258C40.2475 15.9097 39.9891 14.7731 39.9891 13.5158C39.9891 12.3275 40.2302 11.2425 40.7125 10.2608C41.2119 9.26194 41.9266 8.46972 42.8566 7.88417C43.8039 7.29861 44.9233 7.00583 46.215 7.00583C47.9027 7.00583 49.2461 7.50528 50.245 8.50417C51.2438 9.48583 51.7433 10.8033 51.7433 12.4567C51.7433 12.9044 51.6916 13.3867 51.5883 13.9033H42.7533C42.9255 15.3328 43.3991 16.3661 44.1741 17.0033C44.9663 17.6406 45.9652 17.9592 47.1708 17.9592C48.5314 17.9592 49.78 17.6664 50.9166 17.0808L51.175 19.2767C49.7972 19.9311 48.3677 20.2583 46.8866 20.2583ZM48.9791 12.0692C48.9791 11.2597 48.7466 10.5967 48.2816 10.08C47.8166 9.56333 47.1191 9.305 46.1891 9.305C44.4497 9.305 43.3561 10.2264 42.9083 12.0692H48.9791Z" fill="#161616"/>
<path d="M57.2896 20.2583C56.1701 20.2583 55.3349 19.9569 54.7838 19.3542C54.2499 18.7514 53.9829 17.985 53.9829 17.055V0.625H56.6954V15.7375C56.6954 16.4608 56.7385 16.9861 56.8246 17.3133C56.9107 17.6233 57.0743 17.83 57.3154 17.9333C57.5565 18.0194 57.9613 18.0625 58.5296 18.0625L58.1938 20.2583H57.2896Z" fill="#161616"/>
<path d="M61.1676 9.3825H59.1268L59.4368 7.23833H61.1676V4.345C61.1676 3.19111 61.4862 2.28694 62.1234 1.6325C62.7779 0.960834 63.6993 0.625 64.8876 0.625C65.5937 0.625 66.274 0.719723 66.9284 0.909168L66.6184 3.13083C66.1879 3.01028 65.7918 2.95 65.4301 2.95C64.3796 2.95 63.8543 3.52694 63.8543 4.68083V7.23833H67.0318V9.3825H63.8543V20H61.1676V9.3825Z" fill="#161616"/>
<path d="M74.6823 20.2583C73.2701 20.2583 72.0645 19.9742 71.0656 19.4058C70.0667 18.8203 69.3089 18.0281 68.7923 17.0292C68.2928 16.0303 68.0431 14.9108 68.0431 13.6708C68.0431 12.3964 68.2928 11.2597 68.7923 10.2608C69.2917 9.24472 70.0495 8.44389 71.0656 7.85833C72.0817 7.27278 73.3303 6.98 74.8114 6.98C76.1376 6.98 77.2915 7.23833 78.2731 7.755L77.9631 10.0283C76.9987 9.54611 75.9826 9.305 74.9148 9.305C73.6059 9.305 72.5898 9.6925 71.8664 10.4675C71.1603 11.2253 70.8073 12.2758 70.8073 13.6192C70.8073 14.9281 71.1603 15.9786 71.8664 16.7708C72.5898 17.5631 73.5973 17.9592 74.8889 17.9592C75.9739 17.9592 77.0073 17.6922 77.9889 17.1583L78.299 19.38C77.8856 19.6383 77.3517 19.845 76.6973 20C76.0428 20.1722 75.3712 20.2583 74.6823 20.2583Z" fill="#161616"/>
<path d="M83.3907 20.2583C82.2713 20.2583 81.3499 19.9139 80.6266 19.225C79.9205 18.5361 79.5674 17.6319 79.5674 16.5125C79.5674 15.3931 79.9549 14.4975 80.7299 13.8258C81.5221 13.1542 82.478 12.6806 83.5974 12.405C84.7168 12.1122 85.8535 11.9572 87.0074 11.94C86.9902 10.9583 86.7749 10.2867 86.3616 9.925C85.9655 9.54611 85.3196 9.35667 84.4241 9.35667C83.873 9.35667 83.3218 9.44278 82.7707 9.615C82.2368 9.77 81.6427 10.0456 80.9882 10.4417L80.6782 8.24583C81.3155 7.84972 82.013 7.54833 82.7707 7.34167C83.5457 7.11778 84.338 7.00583 85.1474 7.00583C86.7318 7.00583 87.8857 7.43639 88.6091 8.2975C89.3324 9.15861 89.6941 10.6225 89.6941 12.6892V15.66C89.6941 16.3317 89.7199 16.8311 89.7716 17.1583C89.8405 17.4856 89.961 17.7181 90.1332 17.8558C90.3227 17.9936 90.6155 18.0625 91.0116 18.0625H91.3216L91.0116 20.2583H90.4174C89.5218 20.2583 88.8416 20.1206 88.3766 19.845C87.9288 19.5694 87.5671 19.1389 87.2916 18.5533C86.8266 19.0872 86.2582 19.5092 85.5866 19.8192C84.9149 20.1119 84.183 20.2583 83.3907 20.2583ZM84.2174 18.14C84.7168 18.14 85.2163 18.0194 85.7157 17.7783C86.2324 17.5372 86.663 17.2014 87.0074 16.7708V13.7742C83.9074 13.8775 82.3574 14.7472 82.3574 16.3833C82.3574 17.5544 82.9774 18.14 84.2174 18.14Z" fill="#161616"/>
<path d="M93.1372 7.23833H95.5138L95.6947 9.02083C96.8313 7.66028 98.0197 6.98 99.2597 6.98C99.4491 6.98 99.6472 6.99722 99.8538 7.03167L99.6213 9.8475C99.3458 9.77861 99.0358 9.74417 98.6913 9.74417C98.1058 9.74417 97.5547 9.88194 97.038 10.1575C96.5213 10.4331 96.1511 10.7517 95.9272 11.1133V20H93.1372V7.23833Z" fill="#161616"/>
<path d="M107.307 20.2583C105.843 20.2583 104.586 19.9569 103.536 19.3542C102.502 18.7514 101.719 17.9419 101.185 16.9258C100.668 15.9097 100.41 14.7731 100.41 13.5158C100.41 12.3275 100.651 11.2425 101.133 10.2608C101.633 9.26194 102.347 8.46972 103.277 7.88417C104.225 7.29861 105.344 7.00583 106.636 7.00583C108.323 7.00583 109.667 7.50528 110.666 8.50417C111.665 9.48583 112.164 10.8033 112.164 12.4567C112.164 12.9044 112.112 13.3867 112.009 13.9033H103.174C103.346 15.3328 103.82 16.3661 104.595 17.0033C105.387 17.6406 106.386 17.9592 107.592 17.9592C108.952 17.9592 110.201 17.6664 111.337 17.0808L111.596 19.2767C110.218 19.9311 108.788 20.2583 107.307 20.2583ZM109.4 12.0692C109.4 11.2597 109.167 10.5967 108.702 10.08C108.237 9.56333 107.54 9.305 106.61 9.305C104.87 9.305 103.777 10.2264 103.329 12.0692H109.4Z" fill="#161616"/>
<path d="M8.84031 1.6867L6.42293 6.58501L1.01436 7.37303C0.0444412 7.51361 -0.344265 8.7086 0.359108 9.39303L4.27209 13.2036L3.3466 18.5866C3.18001 19.5596 4.20545 20.2884 5.06431 19.8334L9.90278 17.2917L14.7412 19.8334C15.6001 20.2847 16.6255 19.5596 16.459 18.5866L15.5335 13.2036L19.4464 9.39303C20.1498 8.7086 19.7611 7.51361 18.7912 7.37303L13.3826 6.58501L10.9652 1.6867C10.5321 0.813586 9.27714 0.802487 8.84031 1.6867Z" fill="#161616"/>
</svg>
